<svg xmlns="http://www.w3.org/2000/svg" xmlns:xlink="http://www.w3.org/1999/xlink" width="276" height="48" viewBox="0 0 276 48"><defs><linearGradient id="a" x1="0.414" y1="0.255" x2="0" y2="0.932" gradientUnits="objectBoundingBox"><stop offset="0" stop-color="#eab308"/><stop offset="1" stop-color="#ca8a04"/></linearGradient><linearGradient id="b" x1="0.338" y1="0.02" x2="0.664" y2="0.966" gradientUnits="objectBoundingBox"><stop offset="0" stop-color="#fde68a"/><stop offset="1" stop-color="#fbbf24"/></linearGradient><linearGradient id="c" y1="0.5" x2="1" y2="0.5" gradientUnits="objectBoundingBox"><stop offset="0" stop-color="#7dd3fc"/><stop offset="1" stop-color="#0ea5e9"/></linearGradient><linearGradient id="e" x1="0.152" y1="0.102" x2="0.247" y2="1.977" gradientUnits="objectBoundingBox"><stop offset="0" stop-color="#1e293b"/><stop offset="1" stop-color="#475569"/></linearGradient></defs><g transform="translate(-941.698 -388.26)"><g transform="translate(941.698 388.26)"><path d="M635.947,987.024c-9.772,0-17.45,8.016-17.853,18.533l-.374,14c-.581,11.532,10.542,15.47,18.595,15.47Z" transform="translate(-617.698 -987.024)" fill="url(#a)"/><path d="M13.565,0H46.859A14.061,14.061,0,0,1,61.271,13.684l.9,19.9c.107,9.877-7.049,13.921-15.312,13.977L13.565,48C4.987,48.058-.158,41.587,0,33.588l.556-19.9C1.083,4.916,4.875.159,13.565,0Z" transform="translate(5.461 0.001)" fill="url(#b)"/><path d="M12.719,0H43.938A13.139,13.139,0,0,1,57.452,12.73L58.3,31.245c.1,9.188-6.609,12.95-14.358,13l-31.219.4C4.676,44.705-.149,38.686,0,31.245L.522,12.73C1.015,4.573,4.571.148,12.719,0Z" transform="translate(8.18 1.531)" fill="#111827"/><path d="M4.047,0A4.05,4.05,0,1,1,0,4.05,4.049,4.049,0,0,1,4.047,0Z" transform="translate(49.805 16.575)" fill="url(#c)"/><path d="M4.047,0A4.05,4.05,0,1,1,0,4.05,4.049,4.049,0,0,1,4.047,0Z" transform="translate(18.586 16.575)" fill="url(#c)"/></g><path d="M14.549,2.447,1.763-27.733H7.878l7.056,17.149q.388,1.035.844,2.108t.9,2.164q.444,1.091.827,2.139T18.2-2.1l-1.328.034q.414-1.279.927-2.667t1.064-2.836q.551-1.448,1.154-2.975l6.6-17.193h6.2L20.073,2.447Zm31.985.422a11.35,11.35,0,0,1-5.907-1.526,10.87,10.87,0,0,1-4.04-4.2,12.494,12.494,0,0,1-1.469-6.11,12.169,12.169,0,0,1,1.5-6.093,10.9,10.9,0,0,1,4.147-4.174,11.957,11.957,0,0,1,6.048-1.513,12.75,12.75,0,0,1,3.734.521,10.056,10.056,0,0,1,2.98,1.439,8.74,8.74,0,0,1,2.05,2.021,5.108,5.108,0,0,1,.936,2.31l-1.235-.111v-5.705h5.271V2.447H55.237V-3.339l1.132.053A5.265,5.265,0,0,1,55.331-1.1,8.634,8.634,0,0,1,53.139.887a12.756,12.756,0,0,1-3.044,1.435A11.448,11.448,0,0,1,46.534,2.87Zm1.392-4.71a8.174,8.174,0,0,0,3.906-.9,6.6,6.6,0,0,0,2.641-2.514,7.188,7.188,0,0,0,.946-3.711,6.97,6.97,0,0,0-.946-3.622,6.773,6.773,0,0,0-2.641-2.523,8.021,8.021,0,0,0-3.906-.925,7.917,7.917,0,0,0-3.894.925,6.812,6.812,0,0,0-2.619,2.523,6.97,6.97,0,0,0-.946,3.622,7.188,7.188,0,0,0,.946,3.711,6.633,6.633,0,0,0,2.619,2.514A8.068,8.068,0,0,0,47.925-1.841ZM71.312,2.447v-31.9h5.314v31.9Zm16.806,0V-20.275h5.314V2.447Zm2.61-27.73a3.575,3.575,0,0,1-2.49-.8,2.911,2.911,0,0,1-.885-2.272,2.912,2.912,0,0,1,.907-2.219,3.453,3.453,0,0,1,2.469-.855,3.575,3.575,0,0,1,2.491.8,2.911,2.911,0,0,1,.885,2.271,2.912,2.912,0,0,1-.907,2.22A3.454,3.454,0,0,1,90.728-25.283Zm27.553,28.17a11.85,11.85,0,0,1-3.447-.5,12.4,12.4,0,0,1-2.972-1.319,9.426,9.426,0,0,1-2.188-1.828,5.052,5.052,0,0,1-1.119-1.94l1.6-.387-.141,5.431h-5.139v-31.8h5.323v14.452l-1.288-.259a5.125,5.125,0,0,1,1.086-1.95,8.833,8.833,0,0,1,2.1-1.764,12.152,12.152,0,0,1,2.878-1.285,11.347,11.347,0,0,1,3.335-.487,11.7,11.7,0,0,1,5.961,1.518,11.181,11.181,0,0,1,4.161,4.182,11.985,11.985,0,0,1,1.533,6.088,12.209,12.209,0,0,1-1.512,6.11,11.053,11.053,0,0,1-4.156,4.208A11.783,11.783,0,0,1,118.281,2.887Zm-.946-4.719a7.889,7.889,0,0,0,3.889-.926,6.92,6.92,0,0,0,2.632-2.536,7.005,7.005,0,0,0,.963-3.668,7.146,7.146,0,0,0-.946-3.682,6.593,6.593,0,0,0-2.637-2.518,8.15,8.15,0,0,0-3.9-.9,8.171,8.171,0,0,0-3.911.9,6.712,6.712,0,0,0-2.654,2.518,7.047,7.047,0,0,0-.963,3.682,7.005,7.005,0,0,0,.963,3.668,6.879,6.879,0,0,0,2.654,2.536A8.014,8.014,0,0,0,117.335-1.832Zm32.283,4.71a14.634,14.634,0,0,1-6.809-1.535,12,12,0,0,1-4.689-4.2A10.981,10.981,0,0,1,136.4-8.936a10.981,10.981,0,0,1,1.715-6.084,12,12,0,0,1,4.689-4.2,14.634,14.634,0,0,1,6.809-1.535,14.531,14.531,0,0,1,6.77,1.535,11.977,11.977,0,0,1,4.68,4.2,11,11,0,0,1,1.711,6.084,11,11,0,0,1-1.711,6.084,11.977,11.977,0,0,1-4.68,4.2A14.531,14.531,0,0,1,149.618,2.878Zm0-4.72a8.432,8.432,0,0,0,3.97-.93,7.217,7.217,0,0,0,2.8-2.535,6.394,6.394,0,0,0,.99-3.629,6.493,6.493,0,0,0-.99-3.676,7.048,7.048,0,0,0-2.8-2.518,8.593,8.593,0,0,0-3.97-.908,8.612,8.612,0,0,0-4,.93,7.2,7.2,0,0,0-2.827,2.514,6.407,6.407,0,0,0-.985,3.659,6.414,6.414,0,0,0,.985,3.629,7.133,7.133,0,0,0,2.827,2.535A8.614,8.614,0,0,0,149.618-1.842Zm24.657,4.289V-26.579h5.314V2.447Zm-5.5-17.8v-4.926h17.151v4.926Z" transform="translate(1031.773 426.533)" fill="url(#e)"/></g></svg>